<?xml version="1.0" encoding="utf-8"?>
<!-- Generator: Adobe Illustrator 19.2.0, SVG Export Plug-In . SVG Version: 6.00 Build 0)  -->
<svg version="1.1" id="Layer_3" xmlns="http://www.w3.org/2000/svg" xmlns:xlink="http://www.w3.org/1999/xlink" x="0px" y="0px"
	 viewBox="0 0 102.7 76" style="enable-background:new 0 0 102.7 76;" xml:space="preserve">
<style type="text/css">
	.st0{fill:#1B857E;}
	.st1{fill:#20A098;}
	.st2{fill:#ADADAD;}
</style>
<title>logo</title>
<g>
	<path class="st0" d="M6.1,0v55.4c1.8-3.6,6.1-12.3,6.1-27.5v-0.4C12.1,12.3,7.9,3.6,6.1,0z"/>
	<path class="st1" d="M0,27.9c0,15.2,4.3,23.9,6.1,27.5V0C4.2,3.6,0,12.3,0,27.5V27.9z"/>
	<path class="st0" d="M60.1,0c0.3,4.2,1,14.4-4.6,29.5L55.3,30c-5.6,15.2-12.8,22.4-15.8,25.4L60.1,0z"/>
	<path class="st1" d="M44.3,25.4l-0.2,0.4c-2.4,6.3-4,12.9-4.6,19.6c0.3,3.3,0.3,6.6,0,9.9L60.1,0C57.1,3,50,10.2,44.3,25.4z"/>
	<path class="st0" d="M39.5,45.5c-0.6-6.7-2.2-13.3-4.6-19.6l-0.2-0.4C29.1,10.2,22,3,19,0l20.6,55.4C39.8,52.1,39.8,48.8,39.5,45.5
		z"/>
	<path class="st1" d="M19,0c-0.3,4.2-1,14.4,4.6,29.5l0.2,0.4c5.6,15.2,12.8,22.4,15.8,25.4L19,0z"/>
	<path class="st0" d="M102.5,55.4c0.3-4.2,1-14.4-4.6-29.5l-0.2-0.4C92.1,10.2,84.9,3,81.9,0L102.5,55.4z"/>
	<path class="st1" d="M81.9,0c0.3,3.3,0.3,6.6,0,9.9c0.6,6.7,2.2,13.3,4.6,19.6l0.2,0.4c5.6,15.2,12.8,22.4,15.8,25.4L81.9,0z"/>
	<path class="st0" d="M81.9,0L81.9,0L61.4,55.4c3-3,10.1-10.2,15.8-25.4l0.2-0.4c2.4-6.3,4-12.9,4.6-19.6C82.2,6.6,82.2,3.3,81.9,0z
		"/>
	<path class="st1" d="M61.4,55.4C61,51.2,60.4,41,66,25.8l0.2-0.4C71.8,10.2,78.9,3,81.9,0L61.4,55.4z"/>
</g>
<g>
	<path class="st2" d="M6.7,68.7H4v7.2H3v-7.2H0.3v-0.9h6.5L6.7,68.7L6.7,68.7z"/>
	<path class="st2" d="M9.5,67.8h4.8v0.9h-3.7v2.7H14v0.9h-3.4v2.9h3.8V76H9.5L9.5,67.8L9.5,67.8z"/>
	<path class="st2" d="M23.3,75.6c-0.3,0.2-0.6,0.3-1,0.4C21.9,76,21.5,76,21.1,76c-0.5,0-1-0.1-1.5-0.3c-0.5-0.2-0.9-0.4-1.2-0.8
		c-0.4-0.4-0.6-0.8-0.8-1.3c-0.2-0.6-0.3-1.2-0.3-1.9c0-0.7,0.1-1.3,0.3-1.9c0.2-0.5,0.5-0.9,0.9-1.3c0.3-0.3,0.8-0.6,1.2-0.7
		c0.4-0.2,0.9-0.2,1.4-0.2c0.4,0,0.8,0,1.2,0.1c0.3,0,0.5,0.1,0.8,0.2l-0.3,0.8c-0.5-0.2-1.1-0.3-1.7-0.3c-0.3,0-0.7,0.1-1,0.2
		c-0.3,0.1-0.6,0.3-0.9,0.6c-0.3,0.3-0.5,0.6-0.6,1c-0.2,0.5-0.3,1-0.2,1.6c0,0.5,0.1,1,0.2,1.5c0.1,0.4,0.3,0.7,0.6,1
		c0.3,0.3,0.6,0.5,0.9,0.6c0.4,0.1,0.8,0.2,1.2,0.2c0.3,0,0.7,0,1-0.1c0.2-0.1,0.5-0.1,0.7-0.3L23.3,75.6z"/>
	<path class="st2" d="M31.6,72.2h-4.2v3.7h-1v-8.1h1v3.5h4.2v-3.5h1v8.1h-1V72.2z"/>
	<path class="st2" d="M37.8,70.6l-0.7-1.2l0,0l0.1,1.2v5.3h-1v-8.2h0.5l4.2,5.4l0.6,1.1h0.1l-0.1-1.1v-5.3h1V76H42L37.8,70.6z"/>
	<path class="st2" d="M45.8,71.9c-0.1-1.1,0.3-2.2,0.9-3.1c0.7-0.7,1.6-1.1,2.6-1.1c0.5,0,1.1,0.1,1.6,0.3c0.4,0.2,0.8,0.5,1.1,0.8
		c0.3,0.4,0.5,0.8,0.7,1.3c0.1,0.6,0.2,1.1,0.2,1.7c0.1,1.1-0.3,2.2-0.9,3.1c-0.7,0.7-1.7,1.1-2.7,1.1c-0.5,0-1.1-0.1-1.6-0.3
		c-0.4-0.2-0.8-0.5-1.1-0.9c-0.3-0.4-0.5-0.8-0.7-1.3C45.9,73,45.8,72.4,45.8,71.9z M46.9,71.9c0,0.4,0,0.9,0.1,1.3
		c0.1,0.4,0.2,0.7,0.4,1.1c0.2,0.3,0.5,0.6,0.8,0.7c0.3,0.2,0.7,0.3,1.1,0.3c0.7,0,1.4-0.3,1.8-0.8c0.5-0.7,0.7-1.6,0.7-2.5
		c0-0.4,0-0.9-0.1-1.3c-0.1-0.4-0.2-0.7-0.5-1.1c-0.2-0.3-0.5-0.6-0.8-0.7c-1-0.5-2.2-0.3-2.9,0.5C47.1,70.1,46.9,71,46.9,71.9z"/>
	<path class="st2" d="M61.4,75.9h-5.2v-8.1h1v7.2h4.1L61.4,75.9L61.4,75.9z"/>
	<path class="st2" d="M63.9,71.9c-0.1-1.1,0.3-2.2,0.9-3.1c0.7-0.7,1.6-1.1,2.6-1.1c0.5,0,1.1,0.1,1.6,0.3c0.4,0.2,0.8,0.5,1.1,0.8
		c0.3,0.4,0.5,0.8,0.7,1.3c0.1,0.6,0.2,1.1,0.2,1.7c0.1,1.1-0.3,2.2-0.9,3.1c-0.7,0.7-1.7,1.1-2.7,1.1c-0.5,0-1.1-0.1-1.6-0.3
		c-0.4-0.2-0.8-0.5-1.1-0.9c-0.3-0.4-0.5-0.8-0.7-1.3C63.9,73,63.8,72.4,63.9,71.9z M65,71.9c0,0.4,0,0.9,0.1,1.3
		c0.1,0.4,0.2,0.7,0.4,1.1c0.2,0.3,0.5,0.6,0.8,0.7c0.3,0.2,0.7,0.3,1.1,0.3c0.7,0,1.4-0.3,1.8-0.8c0.5-0.7,0.7-1.6,0.7-2.5
		c0-0.4,0-0.9-0.1-1.3c-0.1-0.4-0.2-0.7-0.5-1.1c-0.2-0.3-0.5-0.6-0.8-0.7c-1-0.5-2.2-0.3-2.9,0.5C65.1,70.1,64.9,71,65,71.9
		L65,71.9z"/>
	<path class="st2" d="M77.2,71.9h2.9v3.6c-0.2,0.1-0.3,0.2-0.5,0.3c-0.2,0.1-0.4,0.1-0.6,0.2c-0.2,0.1-0.4,0.1-0.7,0.1
		c-0.2,0-0.4,0-0.7,0c-0.5,0-1-0.1-1.5-0.3c-0.5-0.2-0.9-0.4-1.2-0.8c-0.4-0.4-0.6-0.8-0.8-1.3c-0.2-0.6-0.3-1.2-0.3-1.9
		c0-0.7,0.1-1.3,0.4-1.9c0.2-0.5,0.5-0.9,0.9-1.3c0.4-0.3,0.8-0.6,1.3-0.7c0.5-0.2,0.9-0.2,1.4-0.2c0.4,0,0.8,0,1.2,0.1
		c0.3,0,0.6,0.1,0.8,0.2l-0.3,0.8c-0.5-0.2-1.1-0.3-1.7-0.3c-0.3,0-0.7,0.1-1,0.2c-0.3,0.1-0.7,0.3-0.9,0.6c-0.3,0.3-0.5,0.6-0.7,1
		c-0.2,0.5-0.3,1-0.3,1.6c0,0.5,0.1,1,0.2,1.5c0.1,0.4,0.3,0.7,0.6,1c0.3,0.3,0.6,0.5,0.9,0.6c0.4,0.1,0.8,0.2,1.2,0.2
		c0.5,0,0.9-0.1,1.4-0.3v-2.3l-2-0.2v-0.5L77.2,71.9z"/>
	<path class="st2" d="M83.7,67.8h1v8.1h-1V67.8z"/>
	<path class="st2" d="M88.6,67.8h4.8v0.9h-3.7v2.7H93v0.9h-3.4v2.9h3.8V76h-4.8L88.6,67.8L88.6,67.8z"/>
	<path class="st2" d="M100.7,73.8c0-0.3-0.1-0.6-0.3-0.8c-0.2-0.2-0.5-0.4-0.8-0.5c-0.3-0.2-0.7-0.3-1-0.4c-0.3-0.1-0.7-0.3-1-0.5
		c-0.3-0.2-0.6-0.4-0.8-0.7c-0.2-0.3-0.3-0.7-0.3-1.1c0-0.6,0.2-1.1,0.7-1.5c0.6-0.4,1.3-0.6,2-0.6c0.5,0,0.9,0,1.4,0.1
		c0.3,0,0.7,0.1,1,0.3l-0.3,0.8c-0.3-0.1-0.6-0.2-0.8-0.3c-0.4-0.1-0.8-0.1-1.3-0.1c-0.4,0-0.9,0.1-1.2,0.3
		c-0.3,0.2-0.4,0.5-0.4,0.8c0,0.3,0.1,0.6,0.3,0.8c0.2,0.2,0.5,0.4,0.8,0.5c0.3,0.2,0.6,0.3,1,0.5c0.3,0.2,0.7,0.3,1,0.5
		c0.3,0.2,0.6,0.4,0.8,0.7c0.2,0.3,0.3,0.7,0.3,1.1c0,0.3-0.1,0.6-0.2,0.9c-0.1,0.3-0.3,0.5-0.6,0.7c-0.3,0.2-0.6,0.4-0.9,0.5
		C99.6,76,99.2,76,98.8,76c-0.5,0-1,0-1.5-0.1c-0.3-0.1-0.7-0.2-1-0.3l0.4-0.9c0.3,0.1,0.6,0.2,0.9,0.3c0.4,0.1,0.8,0.1,1.3,0.1
		c0.3,0,0.5,0,0.8-0.1c0.2,0,0.4-0.1,0.6-0.2c0.2-0.1,0.3-0.2,0.4-0.4C100.7,74.3,100.7,74.1,100.7,73.8z"/>
</g>
</svg>
