<?xml version="1.0" encoding="utf-8"?>
<!-- Generator: Adobe Illustrator 24.3.0, SVG Export Plug-In . SVG Version: 6.00 Build 0)  -->
<svg version="1.1" id="Layer_1" xmlns="http://www.w3.org/2000/svg" xmlns:xlink="http://www.w3.org/1999/xlink" x="0px" y="0px"
	 viewBox="0 0 241 34" style="enable-background:new 0 0 241 34;" xml:space="preserve">
<style type="text/css">
	.st0{fill:#32A2DB;}
	.st1{fill:#FFFFFF;}
</style>
<g>
	<g transform="translate(-48 -71)">
	</g>
</g>
<path class="st0" d="M31,5.1c0,0,4.1-4.2,11.9-4.2c3.1,0,8.8,0.9,12.5,6.8l-6.1,4.5c0,0-1.7-3.4-6.6-3.4c-3.3,0-6.2,1.8-7,4.7
	C34.4,7.9,31,5.1,31,5.1"/>
<path class="st0" d="M40.4,25.5c0,0-0.1,1.9,0.5,4.2c0.5,1.9,1.4,3.7,1.4,3.7s9.4,0.5,13.5-7l-6.2-4.2
	C49.6,22.2,47.2,27.7,40.4,25.5"/>
<path class="st1" d="M39.4,25.3c-3-1.5-4.2-5-4.2-7.9c0-8.9-7-16.2-16.8-16.2C8.9,1.2,1.5,6.5,1.5,18c0,14.9,17.8,19.7,28.2,11.6
	c-2.2-2.5-3.7-5.3-4.3-8.6c-2.6,6.8-11.2,6.8-13.8,1.6C9,17,10.6,9.2,18.3,9.2c5.4,0,7.5,4.2,7.5,7.8c0,8.9,6,16.4,15.2,16.4
	c-0.4-1-0.9-2.3-1.3-4C39.3,27.3,39.4,25.3,39.4,25.3"/>
<path class="st1" d="M119.1,26.2V0.3h-2.7v9.9c-0.5-0.4-1-0.8-1.6-1.2c-1.9-1.1-4.1-1.5-6.3-1.2c-2.2,0.3-4.2,1.1-5.7,2.8
	c-1.9,2-2.5,4.5-2.3,7.2c0.2,2.2,0.9,4.1,2.4,5.6c2.8,2.9,7.8,3.6,11.4,1.6c0.8-0.4,1.4-0.9,2-1.4v2.6H119.1z M116.4,16.8V17
	c-0.1,2.7-1.1,4.8-3.6,6c-3.8,1.8-9,0.1-9.5-5.2c-0.2-2.3,0.3-4.5,2.1-6.1c2-1.8,4.4-2.1,6.9-1.2c2.4,0.9,3.7,2.7,4,5.2
	C116.4,16.1,116.4,16.4,116.4,16.8"/>
<path class="st1" d="M145.2,16.8c0-0.3,0-0.7-0.1-1.1c-0.4-2.5-1.6-4.3-4.1-5.2c-2.5-0.9-4.9-0.6-6.9,1.3c-1.8,1.6-2.3,3.7-2,6
	c0.6,5.4,5.9,7.1,9.7,5.2C144.2,21.7,145.1,19.5,145.2,16.8 M147.9,16.7c0,3.1-1,5.6-3.3,7.5c-2,1.6-4.4,2.1-6.9,1.9
	c-2.2-0.2-4.1-0.9-5.7-2.5c-1.6-1.6-2.4-3.6-2.6-5.8c-0.2-2.7,0.4-5.1,2.2-7.2c1.5-1.7,3.5-2.6,5.7-2.8c2.2-0.3,4.3,0.1,6.2,1.2
	c2.5,1.4,3.8,3.7,4.2,6.5C147.8,15.9,147.9,16.4,147.9,16.7"/>
<rect x="123.8" y="7.9" class="st1" width="2.7" height="18.3"/>
<path class="st1" d="M123.3,2.7c0-1.1,0.7-1.9,1.8-1.9c1,0,1.8,0.8,1.8,1.9c0,1.1-0.7,1.9-1.8,1.9C124,4.6,123.3,3.8,123.3,2.7"/>
<path class="st1" d="M183.1,16.8c0-0.3-0.1-0.7-0.1-1.1c-0.4-2.5-1.7-4.3-4-5.2c-2.5-0.9-4.8-0.6-6.9,1.2c-1.8,1.6-2.4,3.7-2.1,6.1
	c0.6,5.3,5.8,7.1,9.5,5.2C182,21.8,183,19.6,183.1,16.8 M185.8,16.8c-0.1,3.6-1.4,6.4-4.6,8.2c-3.6,2-8.6,1.3-11.4-1.6
	c-1.5-1.6-2.3-3.5-2.4-5.7c-0.2-2.7,0.4-5.2,2.3-7.2c1.5-1.7,3.5-2.5,5.7-2.8c2.2-0.3,4.3,0.1,6.3,1.2c2.5,1.4,3.8,3.6,4.2,6.4
	C185.7,15.9,185.7,16.4,185.8,16.8"/>
<path class="st1" d="M77.9,17.1L77.9,17.1C77.8,17.1,77.9,17,77.9,17.1c0-0.5-0.1-1-0.1-1.5c-0.4-2.8-1.7-5-4.2-6.4
	C71.6,8,69.5,7.7,67.3,8c-2.2,0.3-4.2,1.1-5.7,2.8c-1.9,2-2.5,4.5-2.3,7.2c0.2,2.2,0.9,4.1,2.4,5.7c2.8,2.9,7.8,3.6,11.4,1.6
	c0.8-0.4,1.4-0.9,2-1.4v2.4h2.7V17.1z M75.2,17.1L75.2,17.1L75.2,17.1c-0.1,2.8-1.1,4.9-3.6,6.1c-3.8,1.8-9,0.1-9.5-5.2
	c-0.2-2.4,0.3-4.5,2.1-6.1c2-1.8,4.4-2.1,6.9-1.2c2.4,0.9,3.7,2.7,4,5.2C75.1,16.3,75.1,16.7,75.2,17.1C75.2,17,75.2,17.1,75.2,17.1
	"/>
<path class="st1" d="M205.6,26.2l0-25.9h-2.7v9.9c-0.5-0.4-1-0.8-1.6-1.2c-1.9-1.1-4.1-1.5-6.3-1.2c-2.2,0.3-4.2,1.1-5.7,2.8
	c-1.9,2-2.5,4.5-2.3,7.2c0.2,2.2,0.9,4.1,2.4,5.6c2.8,2.9,7.8,3.6,11.4,1.6c0.8-0.4,1.4-0.9,2-1.4l0,2.6H205.6z M202.9,16.8V17
	c-0.1,2.7-1.1,4.8-3.6,6c-3.8,1.8-9,0.1-9.5-5.2c-0.2-2.3,0.3-4.5,2.1-6.1c2-1.8,4.4-2.1,6.9-1.2c2.4,0.9,3.7,2.7,4,5.2
	C202.8,16.1,202.9,16.4,202.9,16.8"/>
<path class="st1" d="M158.5,10c-3.8,0-6.4,2.8-6.4,6.7c0,4,2.7,6.8,6.4,6.8c2.4,0,4.3-0.8,5.6-2.3l1.6,1.6c-1.6,2-4.1,3.1-7.3,3.1
	c-5.3,0-9-3.7-9-9.1c0-5.4,3.8-9.1,9-9.1c2.9,0,5.3,1,7,2.7l-1.5,1.9C162.6,10.8,160.7,10,158.5,10"/>
<path class="st1" d="M98,9v17.2h-2.7v-2.4c-1.6,1.5-3.6,2.5-6.9,2.5c-4.2,0-6.8-2.7-6.8-7.1V9h2.7v9.6c0,3.2,1.6,5.3,4.7,5.3
	c3.8-0.1,6.3-3,6.3-6.9V9H98z"/>
<path class="st1" d="M222.6,15.8c-0.2-3.6-2.6-5.9-6.2-5.9c-3.5,0-6.1,2.3-6.4,5.9H222.6z M225,18h-15c0.5,3.6,3.1,6,6.7,6
	c2.3,0,4.3-0.8,5.7-2.3l1.5,1.6c-1.7,1.9-4.3,3-7.4,3c-5.4,0-9.2-3.8-9.2-9.3c0-5.5,3.8-9.3,9.1-9.3C222.4,7.7,225.3,11.8,225,18"/>
<path class="st1" d="M232.9,10c-2,0-3.6,0.7-3.6,2.4c0,4.1,10.2,2,10.2,8.5c0,3.5-3.2,5.1-6.7,5.1c-2.6,0-5.3-0.9-7-2.5l1-2
	c1.6,1.4,3.9,2.3,6.1,2.3c2.1,0,3.9-0.8,3.9-2.7c0.1-4.4-10.1-2.2-10.1-8.6c0-3.4,3-4.9,6.3-4.9c2.2,0,4.3,0.7,5.8,1.7l-1,2.1
	C236.4,10.5,234.6,10,232.9,10"/>
</svg>
